<?xml version="1.0" encoding="UTF-8"?>
<svg width="10px" height="11px" viewBox="0 0 10 11" version="1.1" xmlns="http://www.w3.org/2000/svg" xmlns:xlink="http://www.w3.org/1999/xlink">
    <!-- Generator: Sketch 52.2 (67145) - http://www.bohemiancoding.com/sketch -->
    <title>Location</title>
    <desc>Created with Sketch.</desc>
    <g id="Symbols" stroke="none" stroke-width="1" fill="none" fill-rule="evenodd">
        <g id="Main/Home_Page/Featured_Cards" transform="translate(-361.000000, -75.000000)">
            <g id="Location" transform="translate(360.000000, 74.000000)">
                <g id="icons/search/icn_search_education">
                    <g id="Group-3" stroke="#000000" stroke-opacity="0.00784313771">
                        <polygon id="Stroke-1" stroke-width="1.33333335e-11" points="0 0 11.9999993 0 11.9999993 12.9999992 0 12.9999992"></polygon>
                    </g>
                    <g id="Group-3">
                        <polygon id="Stroke-1" stroke-opacity="0.00784313771" stroke="#000000" stroke-width="1.33333335e-11" points="0 0 11.9999993 0 11.9999993 12.9999992 0 12.9999992"></polygon>
                        <path d="M5.99999964,3.79166644 L5.99999964,1.6249999 L0.99999994,1.6249999 L0.99999994,11.3749993 L10.9999993,11.3749993 L10.9999993,3.79166644 L5.99999964,3.79166644 Z M2.99999982,10.291666 L1.99999988,10.291666 L1.99999988,9.20833278 L2.99999982,9.20833278 L2.99999982,10.291666 Z M2.99999982,8.12499951 L1.99999988,8.12499951 L1.99999988,7.04166624 L2.99999982,7.04166624 L2.99999982,8.12499951 Z M2.99999982,5.95833298 L1.99999988,5.95833298 L1.99999988,4.87499971 L2.99999982,4.87499971 L2.99999982,5.95833298 Z M2.99999982,3.79166644 L1.99999988,3.79166644 L1.99999988,2.70833317 L2.99999982,2.70833317 L2.99999982,3.79166644 Z M4.9999997,10.291666 L3.99999976,10.291666 L3.99999976,9.20833278 L4.9999997,9.20833278 L4.9999997,10.291666 Z M4.9999997,8.12499951 L3.99999976,8.12499951 L3.99999976,7.04166624 L4.9999997,7.04166624 L4.9999997,8.12499951 Z M4.9999997,5.95833298 L3.99999976,5.95833298 L3.99999976,4.87499971 L4.9999997,4.87499971 L4.9999997,5.95833298 Z M4.9999997,3.79166644 L3.99999976,3.79166644 L3.99999976,2.70833317 L4.9999997,2.70833317 L4.9999997,3.79166644 Z M9.9999994,10.291666 L5.99999964,10.291666 L5.99999964,9.20833278 L6.99999958,9.20833278 L6.99999958,8.12499951 L5.99999964,8.12499951 L5.99999964,7.04166624 L6.99999958,7.04166624 L6.99999958,5.95833298 L5.99999964,5.95833298 L5.99999964,4.87499971 L9.9999994,4.87499971 L9.9999994,10.291666 Z M8.99999946,5.95833298 L7.99999952,5.95833298 L7.99999952,7.04166624 L8.99999946,7.04166624 L8.99999946,5.95833298 Z M8.99999946,8.12499951 L7.99999952,8.12499951 L7.99999952,9.20833278 L8.99999946,9.20833278 L8.99999946,8.12499951 Z" id="Fill-2" fill="#5b5b5b"></path>
                    </g>
                </g>
            </g>
        </g>
    </g>
</svg>