<?xml version="1.0" encoding="UTF-8"?>
<svg width="12px" height="12px" viewBox="0 0 12 12" version="1.1" xmlns="http://www.w3.org/2000/svg" xmlns:xlink="http://www.w3.org/1999/xlink">
    <!-- Generator: Sketch 52.2 (67145) - http://www.bohemiancoding.com/sketch -->
    <title>Group</title>
    <desc>Created with Sketch.</desc>
    <g id="Symbols" stroke="none" stroke-width="1" fill="none" fill-rule="evenodd">
        <g id="Main/icns/Eng_Level" fill="#5b5b5b">
            <g id="Group">
                <path d="M1.85714286,0 L10.1428571,0 C11.1685288,0 12,1.19390733 12,2.66666667 L12,9.33333333 C12,10.8060927 11.1685288,12 10.1428571,12 L1.85714286,12 C0.831471179,12 0,10.8060927 0,9.33333333 L0,2.66666667 C0,1.19390733 0.831471179,0 1.85714286,0 Z M1.91666667,1 C1.41040565,1 1,1.63959321 1,2.42857143 L1,9.57142857 C1,10.3604068 1.41040565,11 1.91666667,11 L10.0833333,11 C10.5895944,11 11,10.3604068 11,9.57142857 L11,2.42857143 C11,1.63959321 10.5895944,1 10.0833333,1 L1.91666667,1 Z" id="Combined-Shape" fill-rule="nonzero"></path>
                <polygon id="Combined-Shape" points="5.46153846 9 2 5.66666667 2.69230769 5 5.46153846 7.66666667 9.41615028 3.85852195 10.0428432 4.58837325"></polygon>
            </g>
        </g>
    </g>
</svg>