<?xml version="1.0" encoding="UTF-8"?>
<svg width="12px" height="12px" viewBox="0 0 12 12" version="1.1" xmlns="http://www.w3.org/2000/svg" xmlns:xlink="http://www.w3.org/1999/xlink">
    <!-- Generator: Sketch 52.2 (67145) - http://www.bohemiancoding.com/sketch -->
    <title>Combined Shape 2</title>
    <desc>Created with Sketch.</desc>
    <g id="Symbols" stroke="none" stroke-width="1" fill="none" fill-rule="evenodd">
        <g id="Combined-Shape-2" fill="#5b5b5b" fill-rule="nonzero">
            <path d="M2,3 L2,2.5 C2,1.11928813 3.11928813,0 4.5,0 L7.5,0 C8.88071187,0 10,1.11928813 10,2.5 L10,3 C11.1045695,3 12,3.8954305 12,5 L12,10 C12,11.1045695 11.1045695,12 10,12 L2,12 C0.8954305,12 -5.32907052e-15,11.1045695 -5.32907052e-15,10 L-5.32907052e-15,5 C-5.32907052e-15,3.8954305 0.8954305,3 2,3 Z M3,3 L9,3 L9,2.5 C9,1.67157288 8.32842712,1 7.5,1 L4.5,1 C3.67157288,1 3,1.67157288 3,2.5 L3,3 Z M2,4 C1.44771525,4 1,4.44771525 1,5 L1,10 C1,10.5522847 1.44771525,11 2,11 L10,11 C10.5522847,11 11,10.5522847 11,10 L11,5 C11,4.44771525 10.5522847,4 10,4 L2,4 Z" id="Combined-Shape"></path>
        </g>
    </g>
</svg>