<svg width="206" height="65" viewBox="0 0 206 65" fill="none" xmlns="http://www.w3.org/2000/svg">
<path d="M57.9893 45.6054V16.4462H71.175C74.5369 16.4462 77.0308 17.1259 78.6566 18.4853C80.31 19.8447 81.1367 21.7071 81.1367 24.0725V24.2356C81.1367 27.5525 79.4695 29.646 76.1352 30.516C80.0758 31.1686 82.046 33.4388 82.046 37.3267V37.4898C82.046 42.9002 78.4637 45.6054 71.299 45.6054H57.9893ZM66.2562 40.0183H69.7697C72.3875 40.0183 73.6964 38.89 73.6964 36.6334V36.4702C73.6964 34.2408 72.3048 33.1261 69.5216 33.1261H66.2562V40.0183ZM66.2562 28.0283H69.4803C70.803 28.0283 71.7399 27.7972 72.2911 27.335C72.8422 26.8728 73.1178 26.1116 73.1178 25.0512V24.8881C73.1178 23.8821 72.8284 23.1481 72.2497 22.6859C71.671 22.2237 70.7479 21.9926 69.4803 21.9926H66.2562V28.0283Z" fill="#262733"/>
<path d="M96.1657 46.0948C92.6936 46.0948 89.8691 45.1296 87.6921 43.1993C85.5151 41.2689 84.4267 38.6045 84.4267 35.206V34.8797C84.4267 31.5356 85.5427 28.844 87.7748 26.8049C90.0068 24.7386 92.79 23.7054 96.1244 23.7054C99.2934 23.7054 101.911 24.6298 103.978 26.4786C106.072 28.3274 107.119 31.0734 107.119 34.7166V36.6334H91.9082C92.0185 38.0471 92.4594 39.1483 93.2309 39.9367C94.0301 40.698 95.091 41.0786 96.4137 41.0786C98.5907 41.0786 99.8445 40.2358 100.175 38.5501H107.119C106.789 40.9699 105.686 42.8323 103.813 44.1373C101.966 45.4423 99.4174 46.0948 96.1657 46.0948ZM91.9909 32.5144H99.9272C99.7894 29.8499 98.5218 28.5177 96.1244 28.5177C94.9946 28.5177 94.0714 28.8712 93.3549 29.5781C92.6385 30.2578 92.1838 31.2365 91.9909 32.5144Z" fill="#262733"/>
<path d="M110.495 45.6054V14.8965H117.852V45.6054H110.495Z" fill="#262733"/>
<path d="M133.144 40.6708C134.522 40.6708 135.569 40.195 136.285 39.2434C137.029 38.2647 137.401 36.8781 137.401 35.0836V34.7574C137.401 31.0326 135.982 29.1702 133.144 29.1702C131.766 29.1702 130.705 29.646 129.961 30.5976C129.217 31.522 128.845 32.8814 128.845 34.6758V35.0021C128.845 38.7812 130.278 40.6708 133.144 40.6708ZM141.576 43.1177C139.344 45.1025 136.519 46.0948 133.102 46.0948C129.685 46.0948 126.861 45.1161 124.629 43.1585C122.397 41.201 121.281 38.5501 121.281 35.206V34.8797C121.281 31.5084 122.397 28.8032 124.629 26.7641C126.888 24.725 129.727 23.7054 133.144 23.7054C136.533 23.7054 139.344 24.7114 141.576 26.7233C143.808 28.708 144.924 31.3589 144.924 34.6758V35.0021C144.924 38.4006 143.808 41.1058 141.576 43.1177Z" fill="#262733"/>
<path d="M148.151 45.6054V24.2764H155.55V27.7021C156.184 26.5058 157.093 25.5406 158.278 24.8065C159.491 24.0725 160.951 23.7054 162.66 23.7054C164.837 23.7054 166.559 24.3851 167.826 25.7445C169.094 27.1039 169.728 29.1023 169.728 31.7395V45.6054H162.329V33.2077C162.329 30.8151 161.296 29.6188 159.229 29.6188C158.099 29.6188 157.203 29.9587 156.542 30.6384C155.881 31.3181 155.55 32.3241 155.55 33.6563V45.6054H148.151Z" fill="#262733"/>
<path d="M184.072 53.5172C177.155 53.5172 173.38 50.8799 172.746 45.6054H180.104C180.49 47.4542 181.812 48.3786 184.072 48.3786C187.131 48.3786 188.66 46.8833 188.66 43.8926V40.63C188.054 41.7447 187.158 42.6827 185.973 43.444C184.816 44.1781 183.479 44.5451 181.964 44.5451C179.346 44.5451 177.155 43.6343 175.392 41.8127C173.656 39.9911 172.788 37.4898 172.788 34.3088V33.9825C172.788 30.9103 173.656 28.4362 175.392 26.5602C177.155 24.657 179.346 23.7054 181.964 23.7054C185.05 23.7054 187.282 24.9017 188.66 27.2943V24.2764H196.059V43.811C196.059 46.992 195.026 49.3982 192.959 51.0295C190.92 52.6879 187.957 53.5172 184.072 53.5172ZM181.468 37.8568C182.212 38.7269 183.245 39.1619 184.568 39.1619C185.891 39.1619 186.938 38.7269 187.709 37.8568C188.481 36.9596 188.867 35.7633 188.867 34.268V33.9825C188.867 32.4872 188.495 31.3181 187.751 30.4753C187.007 29.6052 185.96 29.1702 184.609 29.1702C183.259 29.1702 182.212 29.6052 181.468 30.4753C180.724 31.3453 180.352 32.528 180.352 34.0233V34.3496C180.352 35.8177 180.724 36.9868 181.468 37.8568Z" fill="#262733"/>
<g clip-path="url(#clip0_2133_21034)">
<path d="M42.0507 50.8361C43.1497 51.934 43.1571 53.7266 41.9622 54.7191C36.4808 59.2717 29.5542 61.7931 22.3673 61.7931C15.1804 61.7931 8.25374 59.2717 2.77242 54.7191C1.57744 53.7266 1.58491 51.934 2.68388 50.8361C3.78129 49.7398 5.5507 49.7542 6.76396 50.7208C11.1748 54.2346 16.6709 56.1746 22.3673 56.1746C28.0637 56.1746 33.5598 54.2346 37.9706 50.7208C39.1839 49.7542 40.9533 49.7398 42.0507 50.8361Z" fill="url(#paint0_linear_2133_21034)"/>
<path d="M12.9987 0C18.0356 0 22.0761 4.11291 22.0761 9.11509V30.9024H3.86595V9.11509C3.9213 4.11291 7.96185 0 12.9987 0Z" fill="url(#paint1_linear_2133_21034)"/>
<path d="M22.0912 49.0857C32.1567 49.0857 40.3163 40.9342 40.3163 30.8788C40.3163 20.8234 32.1567 12.6719 22.0912 12.6719C12.0257 12.6719 3.86595 20.8234 3.86595 30.8788C3.86595 40.9342 12.0257 49.0857 22.0912 49.0857Z" fill="url(#paint2_radial_2133_21034)"/>
<path fill-rule="evenodd" clip-rule="evenodd" d="M22.0912 12.6895C12.0257 12.6895 3.86595 20.841 3.86595 30.8963H12.9786C18.0113 30.8963 22.0912 26.8206 22.0912 21.7929V12.6895Z" fill="url(#paint3_linear_2133_21034)"/>
</g>
<defs>
<linearGradient id="paint0_linear_2133_21034" x1="2.70068" y1="61.436" x2="54.5804" y2="48.6657" gradientUnits="userSpaceOnUse">
<stop stop-color="#37509E"/>
<stop offset="1" stop-color="#000854"/>
</linearGradient>
<linearGradient id="paint1_linear_2133_21034" x1="22.0912" y1="-4.41379" x2="4.99493" y2="22.3604" gradientUnits="userSpaceOnUse">
<stop stop-color="#FF9D00"/>
<stop offset="1" stop-color="#FFE100"/>
</linearGradient>
<radialGradient id="paint2_radial_2133_21034" cx="0" cy="0" r="1" gradientUnits="userSpaceOnUse" gradientTransform="translate(1.36254e-06 2.20673) rotate(49.2802) scale(57.1445 57.1531)">
<stop offset="0.619792" stop-color="#EC1846"/>
<stop offset="1" stop-color="#FF9B29"/>
</radialGradient>
<linearGradient id="paint3_linear_2133_21034" x1="20.9866" y1="28.9653" x2="5.53563" y2="15.9845" gradientUnits="userSpaceOnUse">
<stop stop-color="#F19738"/>
<stop offset="1" stop-color="#EB5A3C"/>
</linearGradient>
<clipPath id="clip0_2133_21034">
<rect width="44.6903" height="64.0841" fill="white"/>
</clipPath>
</defs>
</svg>
